<svg width="154" height="154" viewBox="0 0 154 154" fill="none" xmlns="http://www.w3.org/2000/svg">
    <rect width="154" height="154" rx="20" fill="#A1A1A1"/>
    <path d="M86.0333 66.0333C86.5034 65.5671 86.824 64.9714 86.9543 64.3223C87.0845 63.6731 87.0185 62.9999 86.7646 62.3884C86.5107 61.7769 86.0804 61.2549 85.5287 60.8889C84.977 60.5229 84.3287 60.3295 83.6667 60.3333H74.6L76.2667 53.6667H80.3333C81.2174 53.6667 82.0652 53.3155 82.6904 52.6904C83.3155 52.0652 83.6667 51.2174 83.6667 50.3333C83.6667 49.4493 83.3155 48.6014 82.6904 47.9763C82.0652 47.3512 81.2174 47 80.3333 47H76.2667C74.7783 47.0067 73.335 47.5113 72.1667 48.4333C70.9949 49.3469 70.162 50.6257 69.8 52.0667L67.7333 60.3333H50.3333C49.4493 60.3333 48.6014 60.6845 47.9763 61.3096C47.3512 61.9348 47 62.7826 47 63.6667C47 64.5507 47.3512 65.3986 47.9763 66.0237C48.6014 66.6488 49.4493 67 50.3333 67H83.6667C84.1054 67.0025 84.5402 66.9185 84.9464 66.7526C85.3525 66.5867 85.7219 66.3423 86.0333 66.0333ZM67 90.3333C67.0088 87.2307 67.6319 84.1606 68.8333 81.3C70.0348 78.4394 71.7908 75.8451 74 73.6667H51.3333L53.6667 103.933C53.7307 104.775 54.112 105.562 54.7333 106.133C55.3532 106.697 56.1624 107.006 57 107H74.0333C71.8181 104.824 70.0559 102.231 68.8487 99.3705C67.6415 96.5099 67.0132 93.4383 67 90.3333ZM105.167 82.7667C103.267 79.0528 100.044 76.1863 96.1333 74.7333C97.7164 74.2382 99.1569 73.3693 100.333 72.2C102.454 69.8609 103.64 66.8237 103.667 63.6667C103.65 63.2387 103.473 62.8328 103.17 62.53C102.867 62.2272 102.461 62.0498 102.033 62.0333C100.474 61.9699 98.9194 62.231 97.4667 62.8C96.0267 63.412 94.7319 64.3206 93.6667 65.4667C91.6546 67.7249 90.5399 70.6421 90.5333 73.6667C86.3701 73.6189 82.3397 75.1312 79.2355 77.9058C76.1312 80.6804 74.1779 84.5164 73.7599 88.6589C73.3419 92.8014 74.4895 96.9503 76.9768 100.289C79.4642 103.628 83.1111 105.915 87.2 106.7C91.2999 107.471 95.5398 106.676 99.0822 104.473C102.625 102.27 105.212 98.8182 106.333 94.8C107.452 90.7863 107.048 86.5009 105.2 82.7667H105.167Z" fill="#F5F5F5"/>
</svg>
